<svg width="64" height="64" viewBox="0 0 64 64" fill="none" xmlns="http://www.w3.org/2000/svg">
  <rect width="64" height="64" rx="32" fill="black" />
  <path
    d="M50.6125 8.00018C50.6598 8.01004 50.6171 8.40264 50.5763 8.71188C50.3798 9.56432 50.173 10.2751 50.0034 10.8094C49.6687 11.8644 49.3433 12.6568 49.068 13.3308C48.9623 13.589 48.6554 14.3383 48.2744 15.1388C47.86 16.01 47.1016 17.584 45.7518 19.4144C44.7051 20.8333 43.7669 21.7781 43.0874 22.4566C41.9712 23.5708 41.3899 23.967 41.1878 24.1006C40.8059 24.3542 39.8844 24.9225 39.8844 24.9225C39.4366 25.1995 39.3142 25.4514 39.2892 25.6351C39.2892 25.6351 39.2762 25.7319 39.2892 26.1559C39.2892 26.1559 38.5077 26.8721 37.9292 27.3346C36.9224 28.1378 36.5283 28.1736 34.7752 29.3434C34.4313 29.5728 34.156 29.7647 33.9891 29.883C33.9835 29.8901 33.978 29.8928 33.9733 29.8928C33.9001 29.8893 33.8676 29.1551 33.876 27.6905C33.8686 27.1231 33.8927 26.6489 33.9177 26.2993C33.9752 25.524 34.1217 24.3103 34.5704 22.7336C34.5759 22.7139 34.5787 22.7031 34.5833 22.687C34.5833 22.687 34.5973 22.6395 34.6112 22.592C34.6288 22.5346 36.266 17.3429 36.5395 17.4137C36.7981 17.4801 35.8108 22.2263 35.7459 24.0181C35.744 24.0764 35.7172 24.8517 35.7033 25.2533C35.6838 25.8153 35.6615 26.4571 35.6615 26.4571C35.6615 26.4571 35.783 26.6561 35.9165 26.6767C36.1195 26.7081 36.2957 26.4741 36.3698 26.3755C36.4931 26.2106 36.5376 26.0528 36.5682 25.9363C36.6136 25.7633 36.6183 25.6181 36.6248 25.334C36.6322 25.0346 36.584 24.9575 36.6535 24.8132C36.6952 24.7262 36.8 24.5649 36.8065 24.555C36.8083 24.5541 42.7203 19.9979 44.5262 17.974C45.0046 17.4379 45.4793 16.9064 45.9984 16.2341C46.0466 16.1723 46.3034 15.8361 46.6019 15.4131C47.1573 14.6252 48.2373 13.0942 49.1672 11.0971C50.0414 9.21833 50.479 8.27894 50.4845 8.26102C50.5031 8.20813 50.5763 7.993 50.6125 8.00018Z"
    fill="white" />
  <path
    d="M46.7438 29.1605C46.7419 29.1695 46.7401 29.1766 46.7382 29.182C46.7391 29.1766 46.741 29.1695 46.7438 29.1605Z"
    fill="white" />
  <path
    d="M46.7364 29.1901C46.7364 29.191 46.7354 29.1919 46.7354 29.1928C46.7354 29.1919 46.7354 29.191 46.7364 29.1901Z"
    fill="white" />
  <path
    d="M46.754 29.1193C46.4555 30.2128 45.991 31.483 45.2484 32.815C44.9879 33.2829 44.7172 33.7149 44.4456 34.1111C44.5652 33.3375 44.6829 32.5613 44.7988 31.7815C45.0157 30.3204 45.2215 28.8701 45.419 27.4305C43.8198 28.568 42.5071 29.5854 41.5067 30.3903C40.1171 31.5081 39.6795 31.9365 39.3151 32.6258C39.3151 32.6258 38.9304 33.3564 38.4094 35.2629C38.4094 35.2629 38.0525 31.4946 39.7852 29.6912C39.9307 29.5406 40.2487 29.2385 40.1959 29.1704C40.1375 29.0942 39.6684 29.3703 38.3538 30.047C37.397 30.54 37.3553 30.5427 36.9789 30.7596C36.762 30.8851 35.9591 31.3485 35.427 31.7877C34.9894 32.1499 34.1597 32.9709 33.6628 34.6032C33.6479 34.1622 33.6702 33.5096 33.876 32.7531C33.9798 32.3677 34.0827 31.9903 34.3377 31.5708C34.6399 31.0724 35.0246 30.7354 36.2567 29.917C37.0216 29.4088 37.5305 29.0987 37.8717 28.8898C38.198 28.6899 39.6591 27.7837 40.8902 26.6901C41.5522 26.103 42.4579 25.187 43.3433 23.8505C43.3099 24.6536 43.2098 25.2882 43.1226 25.7239C43.0809 25.9336 43.0485 26.0681 42.9558 26.4768C42.7898 27.2056 42.6637 27.7927 42.5821 28.1763C43.1922 27.7084 43.932 27.0433 44.6319 26.1353C45.3133 25.2524 45.7555 24.3713 46.0559 23.6138L46.0587 23.6147C46.0726 23.6165 46.0865 23.6192 46.1013 23.621C46.1004 23.6443 46.1023 23.6667 46.1087 23.6873C46.1514 23.8128 46.2654 23.8639 46.3943 23.8442C46.5704 23.8155 46.7336 23.7402 46.893 23.6649C46.9246 23.6497 46.9311 23.6631 46.9635 23.6479L46.996 23.6389C47.0766 23.9141 47.1118 24.1337 47.1295 24.2547C47.2917 25.3519 47.2157 26.4087 47.173 27.0057C47.1554 27.2432 47.1155 27.5677 47.033 27.9666C46.9774 28.248 46.804 28.9301 46.7503 29.1363C46.7512 29.1309 46.7521 29.1256 46.754 29.1193Z"
    fill="white" />
  <path
    d="M40.3164 45.2914C40.2487 45.2591 40.5268 44.2875 41.186 43.3992C41.4428 43.0523 41.7469 42.6507 42.2938 42.3316C42.6508 42.1228 42.9428 42.0484 43.5695 41.8996C44.224 41.7445 44.9749 41.5733 45.8084 41.394C45.4116 42.5028 44.8535 42.9089 44.4993 43.0801C44.4168 43.1195 44.2685 43.1724 43.9728 43.2773C43.0429 43.6053 42.8853 43.5686 42.3513 43.8016C41.9619 43.971 41.6903 44.1467 41.4103 44.3278C41.0515 44.5591 40.8272 44.7061 40.5862 44.9723C40.3989 45.1793 40.3423 45.303 40.3164 45.2914Z"
    fill="white" />
  <path
    d="M40.0568 36.205C40.0503 36.7607 39.8992 37.165 39.787 37.4025C39.4292 38.1537 38.8062 38.5759 38.4817 38.7964C38.0515 39.0886 37.9801 39.0285 37.5036 39.3727C36.9122 39.7985 36.673 40.1409 36.5821 40.0844C36.4709 40.0154 36.7305 39.4274 36.9789 38.8654C37.1189 38.549 37.1894 38.3912 37.3108 38.1877C37.4054 38.0309 37.6649 37.623 38.134 37.1955C38.4502 36.9077 38.9304 36.4694 39.686 36.2758C39.8389 36.2364 39.9678 36.2157 40.0568 36.205Z"
    fill="white" />
  <path
    d="M37.6733 52.8889C37.6399 52.957 37.5982 53.0252 37.55 53.0933C37.5797 53.035 37.6204 52.9651 37.6733 52.8889Z"
    fill="white" />
  <path
    d="M49.3618 27.3992C49.7373 28.2758 49.7837 29.0592 49.8189 29.7422C49.8263 29.8848 49.8421 30.2559 49.817 30.7372C49.7596 31.8397 49.5361 32.624 49.4898 32.7836C49.3989 33.0937 49.3016 33.4316 49.093 33.8547C48.9613 34.1218 48.8075 34.3782 48.4987 34.8049C48.1817 35.2432 47.8034 35.7649 47.2082 36.3762C46.703 36.8952 45.9419 37.58 44.8831 38.2379C45.1056 37.8794 45.7444 36.8486 46.2348 36.0051C46.3229 35.8527 46.4434 35.6448 46.588 35.3732C46.8615 34.8604 47.0377 34.4741 47.084 34.371C47.2175 34.0752 47.3093 33.8467 47.3927 33.6369C47.4623 33.4639 47.5587 33.2237 47.6662 32.9225C47.7154 32.7863 47.8906 32.2888 48.076 31.6022C48.1808 31.2132 48.2466 30.9218 48.3096 30.6359C48.3829 30.3069 48.4876 29.8337 48.5877 29.2107C48.6443 28.8575 48.7166 28.4031 48.7667 27.7989C48.8112 27.2593 48.8214 26.7941 48.8195 26.432C49.0893 26.8147 49.2571 27.1553 49.3618 27.3992Z"
    fill="white" />
  <path
    d="M46.7503 29.1363C46.7512 29.1309 46.7521 29.1256 46.754 29.1193C46.4555 30.2128 45.991 31.483 45.2484 32.815C44.9879 33.2829 44.7172 33.7149 44.4456 34.1111C44.5652 33.3375 44.6829 32.5613 44.7988 31.7815C45.0157 30.3204 45.2215 28.8701 45.419 27.4305C43.8198 28.568 42.5071 29.5854 41.5067 30.3903C40.1171 31.5081 39.6795 31.9365 39.3151 32.6258C39.3151 32.6258 38.9304 33.3564 38.4094 35.2629C38.4094 35.2629 38.0525 31.4946 39.7852 29.6912C39.9307 29.5406 40.2487 29.2385 40.1959 29.1704C40.1375 29.0942 39.6684 29.3703 38.3538 30.047C37.397 30.54 37.3553 30.5427 36.9789 30.7596C36.762 30.8851 35.9591 31.3485 35.427 31.7877C34.9894 32.1499 34.1597 32.9709 33.6628 34.6032C33.6479 34.1622 33.6702 33.5096 33.876 32.7531C33.9798 32.3677 34.0827 31.9903 34.3377 31.5708C34.6399 31.0724 35.0246 30.7354 36.2567 29.917C37.0216 29.4088 37.5305 29.0987 37.8717 28.8898C38.198 28.6899 39.6591 27.7837 40.8902 26.6901C41.5522 26.103 42.4579 25.187 43.3433 23.8505C43.3099 24.6536 43.2098 25.2882 43.1226 25.7239C43.0809 25.9336 43.0485 26.0681 42.9558 26.4768C42.7898 27.2056 42.6637 27.7927 42.5821 28.1763C43.1922 27.7084 43.932 27.0433 44.6319 26.1353C45.3133 25.2524 45.7555 24.3713 46.0559 23.6138C46.2181 23.2024 46.3387 22.8268 46.4323 22.5077C46.4833 22.5714 46.551 22.661 46.6223 22.7749C46.6761 22.8591 46.8485 23.1424 46.9904 23.6192C46.9922 23.6255 46.9941 23.6327 46.996 23.6389C47.0766 23.9141 47.1118 24.1337 47.1295 24.2547C47.2917 25.3519 47.2157 26.4087 47.173 27.0057C47.1554 27.2432 47.1155 27.5677 47.033 27.9666C46.9774 28.248 46.804 28.9301 46.7503 29.1363Z"
    fill="white" />
  <path d="M46.7382 29.182C46.7391 29.1766 46.741 29.1695 46.7438 29.1605L46.7382 29.182Z" fill="white" />
  <path
    d="M46.7345 29.1964C46.7345 29.1964 46.7345 29.1955 46.7354 29.1937C46.7354 29.1928 46.7354 29.1928 46.7354 29.1928C46.7354 29.1919 46.7354 29.191 46.7364 29.1901"
    fill="white" />
  <path d="M46.7364 29.1901C46.7364 29.191 46.7354 29.1919 46.7354 29.1928L46.7364 29.1901Z" fill="white" />
  <path
    d="M46.7364 29.1901C46.7364 29.1892 46.7373 29.1874 46.7373 29.1865V29.1856C46.7382 29.1847 46.7382 29.1838 46.7382 29.182"
    fill="white" />
  <path d="M46.7438 29.1605C46.7419 29.1695 46.7401 29.1766 46.7382 29.182L46.7438 29.1605Z" fill="white" />
  <path
    d="M37.3108 38.1877C37.4054 38.0309 37.6649 37.623 38.134 37.1955C38.4502 36.9077 38.9304 36.4694 39.686 36.2758C39.8389 36.2364 39.9678 36.2157 40.0568 36.205C40.0503 36.7607 39.8992 37.165 39.787 37.4025C39.4292 38.1537 38.8062 38.5759 38.4817 38.7964C38.0515 39.0886 37.9801 39.0285 37.5036 39.3727C36.9122 39.7985 36.673 40.1409 36.5821 40.0844C36.4709 40.0154 36.7305 39.4274 36.9789 38.8654C37.1189 38.549 37.1894 38.3912 37.3108 38.1877Z"
    fill="white" />
  <path
    d="M41.186 43.3992C41.4428 43.0523 41.7469 42.6507 42.2938 42.3316C42.6508 42.1228 42.9428 42.0484 43.5695 41.8996C44.224 41.7445 44.9749 41.5733 45.8084 41.394C45.4116 42.5028 44.8535 42.9089 44.4993 43.0801C44.4168 43.1195 44.2685 43.1724 43.9728 43.2773C43.0429 43.6053 42.8853 43.5686 42.3513 43.8016C41.9619 43.971 41.6903 44.1467 41.4103 44.3278C41.0515 44.5591 40.8272 44.7061 40.5862 44.9723C40.3989 45.1793 40.3423 45.303 40.3164 45.2914C40.2487 45.2591 40.5268 44.2875 41.186 43.3992Z"
    fill="white" />
  <path
    d="M37.55 53.0933C37.537 53.1166 37.5259 53.139 37.5166 53.1578C38.5234 52.7303 39.4273 52.473 40.1393 52.3134C40.5806 52.2149 41.9638 51.9253 43.626 51.9433C44.4548 51.9531 45.2113 52.0374 45.2957 52.0463C45.801 52.1046 45.8139 52.1306 46.4323 52.2041C47.2741 52.3045 47.8785 52.3314 48.2178 52.3412C48.7843 52.3574 49.067 52.3654 49.3795 52.3134C49.5343 52.2884 50.047 52.1942 50.6264 51.8886C51.2679 51.5506 51.636 51.141 52.1004 50.6148C52.9941 49.6011 53.4697 48.6115 53.7729 47.9697C53.8721 47.7591 53.949 47.5825 54 47.4633C53.8322 47.7465 53.5865 48.1526 53.276 48.6348C52.8801 49.2497 52.6817 49.558 52.4583 49.8485C51.8881 50.5915 51.3106 51.3445 50.3149 51.7245C49.8319 51.9083 49.3581 51.9639 49.2358 51.9764C48.8788 52.015 48.5349 52.0042 47.8479 51.9836C47.6366 51.9773 47.5272 51.9737 47.3955 51.963C46.8866 51.9226 46.5157 51.8303 46.321 51.7837C45.7824 51.6537 45.266 51.5291 44.745 51.4503C44.0534 51.3454 43.4935 51.3427 42.9743 51.3409C42.635 51.3391 42.2558 51.3373 41.7691 51.3821C41.4474 51.4108 40.7679 51.4888 39.8844 51.738C38.8368 52.0329 38.1201 52.2453 37.6733 52.8889C37.6204 52.9651 37.5797 53.035 37.55 53.0933Z"
    fill="white" />
  <path
    d="M36.8065 24.555C36.8 24.5649 36.6952 24.7262 36.6535 24.8132C36.584 24.9575 36.6322 25.0346 36.6248 25.334C36.6183 25.6181 36.6136 25.7633 36.5682 25.9363C36.5376 26.0528 36.4931 26.2106 36.3698 26.3755C36.2957 26.4741 36.1195 26.7081 35.9165 26.6767C35.783 26.6561 35.6615 26.4571 35.6615 26.4571C35.6615 26.4571 35.6838 25.8153 35.7033 25.2533C35.7172 24.8517 35.744 24.0764 35.7459 24.0181C35.8108 22.2263 36.7981 17.4801 36.5395 17.4137C36.266 17.3429 34.6288 22.5346 34.6112 22.592C34.5973 22.6395 34.5833 22.687 34.5833 22.687C34.5787 22.7031 34.5759 22.7139 34.5704 22.7336C34.1217 24.3103 33.9752 25.524 33.9177 26.2993C33.8927 26.6489 33.8686 27.1231 33.876 27.6905C33.8676 29.1551 33.9001 29.8893 33.9733 29.8928C33.978 29.8928 33.9835 29.8901 33.9891 29.883C34.156 29.7647 34.4313 29.5728 34.7752 29.3434C36.5283 28.1736 36.9224 28.1378 37.9292 27.3346C38.5077 26.8721 39.2892 26.1559 39.2892 26.1559C39.2762 25.7319 39.2892 25.6351 39.2892 25.6351C39.3142 25.4514 39.4366 25.1995 39.8844 24.9225C39.8844 24.9225 40.8059 24.3542 41.1878 24.1006C41.3899 23.967 41.9712 23.5708 43.0874 22.4566C43.7669 21.7781 44.7051 20.8333 45.7518 19.4144C47.1016 17.584 47.86 16.01 48.2744 15.1388C48.6554 14.3383 48.9623 13.589 49.068 13.3308C49.3433 12.6568 49.6687 11.8644 50.0034 10.8094C50.173 10.2751 50.3798 9.56432 50.5763 8.71188C50.6171 8.40264 50.6598 8.01004 50.6125 8.00018C50.5763 7.993 50.5031 8.20813 50.4845 8.26102C50.479 8.27894 50.0414 9.21833 49.1672 11.0971C48.2373 13.0942 47.1573 14.6252 46.6019 15.4131C46.3034 15.8361 46.0466 16.1723 45.9984 16.2341C45.4793 16.9064 45.0046 17.4379 44.5262 17.974C42.7203 19.9979 36.8083 24.5541 36.8065 24.555Z"
    fill="white" />
  <path
    d="M32.1971 54.6709C32.8259 54.2792 33.4538 53.8833 34.2877 53.3576L34.3571 53.3138C34.9115 52.9642 35.3556 52.6783 35.7181 52.1351C35.9499 51.7882 36.0565 51.4736 36.1149 51.2862C36.6368 49.6011 36.711 47.0088 37.1208 44.6675C37.3544 43.3364 37.5481 42.9313 37.6881 42.6812C38.3556 41.4845 39.4097 40.9306 40.0308 40.5487C41.1285 39.8756 42.5868 38.6915 44.008 36.4596L44.0077 36.4611C43.8382 37.4062 43.6686 38.3514 43.4981 39.2965C44.5429 38.998 46.2534 38.3715 47.9777 37.018C49.6159 35.7335 50.5809 34.3316 51.1047 33.4299C50.7237 34.743 50.2806 35.7792 49.9255 36.5151C49.6928 36.9956 49.424 37.4984 49.0541 38.056C48.5228 38.8555 48.127 39.4382 47.4382 39.8236C46.8856 40.1328 46.4082 40.1687 45.8862 40.235L45.8854 40.2351C44.4309 40.4189 42.479 40.6654 41.1164 41.5984C39.9307 42.4096 39.381 43.5677 39.1575 44.1924C38.9545 44.7598 38.7913 45.632 38.5401 47.4041C37.9848 51.3266 37.9709 51.4368 37.9709 51.4368C37.8661 52.3072 37.8504 52.5331 37.6733 52.8889C37.6204 52.9651 37.5797 53.035 37.55 53.0933C37.1467 53.6625 36.2864 54.2263 35.7283 54.5543C35.4233 54.7336 35.2082 54.8421 35.2082 54.8421C34.4943 55.197 33.6442 55.5913 32.6309 56C32.6309 55.8655 32.3992 55.5518 32.3992 55.5518C32.3992 55.5518 31.9148 54.8467 32.1971 54.6709Z"
    fill="white" />
  <path
    d="M18.2471 29.1234C18.2483 29.128 18.249 29.1321 18.2497 29.1363C18.196 28.9301 18.0226 28.248 17.967 27.9666C17.8845 27.5677 17.8446 27.2432 17.827 27.0057L17.8267 27.0018C17.784 26.4041 17.7087 25.3495 17.8706 24.2547C17.8882 24.1337 17.9234 23.9141 18.0041 23.6389C18.0041 23.6389 18.0078 23.6255 18.0096 23.6192C18.1515 23.1424 18.3239 22.8591 18.3777 22.7749C18.4491 22.661 18.5167 22.5714 18.5677 22.5077C18.6614 22.8268 18.7819 23.2024 18.9441 23.6138C19.2445 24.3713 19.6867 25.2524 20.3681 26.1353C21.068 27.0433 21.8078 27.7084 22.4179 28.1763C22.3363 27.7927 22.2102 27.2056 22.0443 26.4768C21.9515 26.0681 21.9191 25.9336 21.8774 25.7239C21.7902 25.2882 21.6901 24.6536 21.6567 23.8505C22.5421 25.187 23.4478 26.103 24.1098 26.6901C25.3409 27.7837 26.802 28.6899 27.1283 28.8898L27.1626 28.9108C27.5033 29.1193 28.0036 29.4255 28.7433 29.917C29.9754 30.7354 30.3601 31.0724 30.6623 31.5708C30.9173 31.9903 31.0202 32.3677 31.124 32.7531C31.3298 33.5096 31.3521 34.1622 31.3372 34.6032C30.8403 32.9709 30.0106 32.1499 29.573 31.7877C29.0448 31.3518 28.2499 30.8919 28.026 30.7624L28.0211 30.7596C27.6447 30.5427 27.603 30.54 26.6463 30.047C25.3317 29.3703 24.8626 29.0942 24.8042 29.1704C24.7513 29.2385 25.0693 29.5406 25.2148 29.6912C26.9476 31.4946 26.5906 35.2629 26.5906 35.2629C26.0696 33.3564 25.6849 32.6258 25.6849 32.6258C25.3205 31.9365 24.883 31.5081 23.4933 30.3903C22.493 29.5854 21.1802 28.568 19.581 27.4305C19.7785 28.8701 19.9843 30.3204 20.2012 31.7815C20.3171 32.5613 20.4348 33.3375 20.5544 34.1111C20.2828 33.7149 20.0121 33.2829 19.7516 32.815C19.0099 31.4846 18.5457 30.216 18.2471 29.1234Z"
    fill="white" />
  <path
    d="M28.1935 24.555C28.2 24.5649 28.3048 24.7262 28.3465 24.8132C28.416 24.9575 28.3678 25.0346 28.3752 25.334C28.3817 25.6181 28.3864 25.7633 28.4318 25.9363C28.4624 26.0528 28.5069 26.2106 28.6302 26.3755C28.7044 26.4741 28.8805 26.7081 29.0835 26.6767C29.217 26.6561 29.3385 26.4571 29.3385 26.4571L29.2904 25.0706C29.276 24.6533 29.2557 24.0684 29.2541 24.0181C29.1892 22.2263 28.2019 17.4801 28.4605 17.4137C28.734 17.3429 30.3712 22.5346 30.3888 22.592L30.4167 22.687C30.4213 22.7031 30.4241 22.7139 30.4296 22.7336C30.8783 24.3103 31.0248 25.524 31.0823 26.2993C31.1073 26.6489 31.1314 27.1231 31.124 27.6905C31.1324 29.1551 31.0999 29.8893 31.0267 29.8928C31.022 29.8928 31.0165 29.8901 31.0109 29.883C30.844 29.7647 30.5687 29.5728 30.2248 29.3434C28.4717 28.1736 28.0777 28.1378 27.0708 27.3346C26.4924 26.8721 25.7108 26.1559 25.7108 26.1559C25.7238 25.7319 25.7108 25.6351 25.7108 25.6351C25.6858 25.4514 25.5634 25.1995 25.1156 24.9225C25.1156 24.9225 24.1941 24.3542 23.8122 24.1006C23.6101 23.967 23.0288 23.5708 21.9126 22.4566C21.2331 21.7781 20.2948 20.8333 19.2482 19.4144C17.8984 17.584 17.14 16.01 16.7256 15.1388C16.3446 14.3383 16.0377 13.589 15.932 13.3308L15.9177 13.2957C15.6454 12.6292 15.3255 11.8461 14.9966 10.8094C14.827 10.2751 14.6202 9.56432 14.4237 8.71188C14.3829 8.40264 14.3403 8.01004 14.3875 8.00018C14.4237 7.993 14.4969 8.20813 14.5155 8.26102C14.521 8.27894 14.9586 9.21833 15.8328 11.0971C16.7608 13.0901 17.8383 14.6188 18.3946 15.4082L18.3981 15.4131C18.6966 15.8361 18.9534 16.1723 19.0016 16.2341C19.5189 16.904 19.992 17.4341 20.4686 17.9682L20.4738 17.974C22.2797 19.9979 28.1917 24.5541 28.1935 24.555Z"
    fill="white" />
  <path
    d="M30.7134 53.3582C31.5467 53.8836 32.1744 54.2794 32.803 54.6709C33.0347 54.8053 32.6309 55.4622 32.6309 55.4622C32.6309 55.4622 32.408 55.8476 32.3895 56C31.3762 55.5913 30.5057 55.197 29.7918 54.8421C29.7918 54.8421 29.5767 54.7336 29.2717 54.5543C28.7136 54.2263 27.8533 53.6625 27.45 53.0933C27.4204 53.035 27.3796 52.9651 27.3267 52.8889C27.1496 52.5331 27.1339 52.3072 27.0291 51.4368C27.0291 51.4368 27.0152 51.3266 26.4599 47.4041C26.2087 45.632 26.0455 44.7598 25.8425 44.1924C25.619 43.5677 25.0693 42.4096 23.8836 41.5984C22.521 40.6654 20.5691 40.4189 19.1146 40.2351L19.1138 40.235C18.5918 40.1687 18.1144 40.1328 17.5618 39.8236C16.873 39.4382 16.4772 38.8555 15.9459 38.056C15.576 37.4984 15.3072 36.9956 15.0745 36.5151C14.7194 35.7792 14.2763 34.743 13.8953 33.4299C14.4191 34.3316 15.3841 35.7335 17.0223 37.018C18.7466 38.3715 20.4571 38.998 21.5019 39.2965C21.3313 38.3509 21.1617 37.4052 20.992 36.4596C22.4132 38.6915 23.8715 39.8756 24.9692 40.5487C25.5903 40.9306 26.6444 41.4845 27.3119 42.6812C27.4519 42.9313 27.6456 43.3364 27.8793 44.6675C28.289 47.0088 28.3632 49.6011 28.8851 51.2862C28.9435 51.4736 29.0502 51.7882 29.2819 52.1351C29.6444 52.6783 30.0885 52.9642 30.6429 53.3138L30.7134 53.3582Z"
    fill="white" />
  <path
    d="M23.814 43.3992C23.5572 43.0523 23.2532 42.6507 22.7062 42.3316C22.3493 42.1228 22.0572 42.0484 21.4305 41.8996C20.776 41.7445 20.0251 41.5733 19.1916 41.394C19.5884 42.5028 20.1465 42.9089 20.5007 43.0801C20.5832 43.1195 20.7315 43.1724 21.0272 43.2773C21.9571 43.6053 22.1147 43.5686 22.6487 43.8016C23.038 43.971 23.3096 44.1467 23.5895 44.3277L23.5897 44.3278C23.9485 44.5591 24.1728 44.7061 24.4139 44.9723C24.6011 45.1793 24.6577 45.303 24.6836 45.2914C24.7513 45.2591 24.4732 44.2875 23.814 43.3992Z"
    fill="white" />
  <path
    d="M27.6892 38.1877C27.5946 38.0309 27.3351 37.623 26.866 37.1955L26.8636 37.1933C26.5474 36.9055 26.0677 36.4689 25.314 36.2758C25.1611 36.2364 25.0322 36.2157 24.9432 36.205C24.9497 36.7607 25.1008 37.165 25.213 37.4025C25.57 38.1519 26.191 38.5739 26.5161 38.7948L26.5183 38.7964C26.9485 39.0886 27.0199 39.0285 27.4964 39.3727C28.0878 39.7985 28.327 40.1409 28.4179 40.0844C28.5291 40.0154 28.2696 39.4274 28.0211 38.8654C27.8811 38.549 27.8107 38.3912 27.6892 38.1877Z"
    fill="white" />
  <path
    d="M27.3267 52.8889C27.3601 52.957 27.4018 53.0252 27.45 53.0933C27.463 53.1166 27.4741 53.139 27.4834 53.1578C26.4766 52.7303 25.5727 52.473 24.8607 52.3134C24.4194 52.2149 23.0362 51.9253 21.374 51.9433C20.5746 51.9528 19.8425 52.0315 19.7158 52.0451L19.7043 52.0463C19.1991 52.1046 19.1861 52.1306 18.5677 52.2041C17.7259 52.3045 17.1215 52.3314 16.7822 52.3412L16.7818 52.3412C16.2156 52.3574 15.9329 52.3654 15.6205 52.3134C15.4657 52.2884 14.953 52.1942 14.3736 51.8886C13.7321 51.5507 13.364 51.141 12.8996 50.6148C12.0059 49.6011 11.5303 48.6115 11.2271 47.9697C11.1279 47.7591 11.051 47.5825 11 47.4633C11.1678 47.7465 11.4135 48.1526 11.724 48.6348L11.7278 48.6406C12.1212 49.2516 12.319 49.559 12.5417 49.8485L12.5421 49.8489C13.1121 50.5919 13.6897 51.3446 14.6851 51.7245C15.1681 51.9083 15.6419 51.9639 15.7642 51.9764C16.1181 52.0146 16.4592 52.0044 17.1344 51.9841L17.1521 51.9836C17.3634 51.9773 17.4728 51.9737 17.6045 51.963C18.0938 51.9242 18.4554 51.8374 18.6556 51.7893L18.679 51.7837C19.2176 51.6537 19.734 51.5291 20.255 51.4503C20.9466 51.3454 21.5065 51.3427 22.0257 51.3409C22.365 51.3391 22.7442 51.3373 23.2309 51.3821C23.5526 51.4108 24.2321 51.4888 25.1156 51.738C26.1632 52.0329 26.8799 52.2453 27.3267 52.8889Z"
    fill="white" />
  <path d="M32.3895 56C32.408 55.8476 32.6309 55.4622 32.6309 55.4622V56H32.3895Z" fill="white" />
  <path
    d="M15.633 27.3992C15.2575 28.2758 15.2112 29.0592 15.176 29.7422C15.1685 29.8848 15.1528 30.2559 15.1778 30.7372C15.2353 31.8397 15.4587 32.624 15.5051 32.7836C15.5959 33.0937 15.6933 33.4316 15.9019 33.8547C16.0335 34.1218 16.1874 34.3782 16.4961 34.8049C16.8132 35.2432 17.1914 35.7649 17.7866 36.3762C18.2919 36.8952 19.053 37.58 20.1117 38.2379C19.8892 37.8794 19.2505 36.8486 18.76 36.0051C18.672 35.8527 18.5514 35.6448 18.4068 35.3732C18.1333 34.8604 17.9572 34.4741 17.9108 34.371C17.7773 34.0752 17.6856 33.8467 17.6021 33.6369C17.5326 33.4639 17.4362 33.2237 17.3286 32.9225C17.2795 32.7863 17.1043 32.2888 16.9189 31.6022C16.8141 31.2132 16.7483 30.9218 16.6852 30.6359C16.612 30.3069 16.5072 29.8337 16.4071 29.2107C16.3506 28.8575 16.2783 28.4031 16.2282 27.7989C16.1837 27.2593 16.1735 26.7941 16.1753 26.432C15.9056 26.8147 15.7378 27.1553 15.633 27.3992Z"
    fill="white" />
  <path
    d="M32.5317 39.4023C32.9137 38.8224 33.2947 38.2424 33.6767 37.6625C33.2947 36.9938 32.9137 36.3242 32.5317 35.6555C32.1461 36.3269 31.7595 36.9983 31.3738 37.6697C31.7595 38.2469 32.1461 38.8251 32.5317 39.4023Z"
    fill="white" />
</svg>