<svg width="64" height="64" viewBox="0 0 64 64" fill="none" xmlns="http://www.w3.org/2000/svg">
  <rect width="64" height="64" rx="32" fill="black" />
  <path fill-rule="evenodd" clip-rule="evenodd"
    d="M47.3337 14.8694V22.7083C47.3337 22.81 47.2975 22.8976 47.2254 22.9695L36.4074 33.7877L51.4894 48.8696C51.5974 48.9774 51.6279 49.131 51.5696 49.272C51.5111 49.413 51.3809 49.5 51.2284 49.5H42.6674C42.5658 49.5 42.4782 49.4638 42.4063 49.3918L27.2004 34.186C27.0565 34.0422 27.0565 33.8076 27.2003 33.6637L38.7334 22.1285C39.0492 21.8128 38.7986 21.2923 38.3602 21.2926L19.4053 21.3112C19.3038 21.3113 19.2166 21.2754 19.1447 21.2039L13.032 15.1313C12.9235 15.0237 12.8925 14.8699 12.9507 14.7286C13.0089 14.5873 13.1394 14.5 13.2922 14.5H46.9644C47.1677 14.5 47.3337 14.666 47.3337 14.8694ZM12.5487 49.1327L12.4014 22.5952C12.4006 22.4422 12.4873 22.3111 12.6284 22.2523C12.7696 22.1933 12.9237 22.2238 13.0319 22.3319L19.1435 28.4441C19.2153 28.5159 19.2515 28.6033 19.2516 28.7048L19.2639 40.5225C19.2643 40.9708 19.7229 41.141 20.0341 40.8299L25.5209 35.3433C25.6646 35.1995 25.8993 35.1995 26.043 35.3433L30.2156 39.5162C30.3595 39.66 30.3595 39.8946 30.2156 40.0386L28.2806 41.9732L20.7849 49.3932C20.713 49.4643 20.6261 49.5 20.525 49.5H12.9181C12.7154 49.5 12.5498 49.3354 12.5487 49.1327Z"
    fill="white" />
</svg>