<svg width="64" height="64" viewBox="0 0 64 64" fill="none" xmlns="http://www.w3.org/2000/svg">
  <rect width="64" height="64" rx="32" fill="black" />
  <path
    d="M16.7826 46.1926L14.8116 47L17.3623 46.5386L21.5942 45.7888L27.5652 44.0586L31.7971 42.3284L32.8986 41.175L34.6957 38.2913L35.7391 35.0039L36.1449 32.5816V30.736L35.8551 29.0635L35.1594 27.91L33.942 26.6412L33.6522 27.737L33.1304 29.3519L32.4928 31.1974L31.6232 32.9277L30.1739 35.4076L28.5507 37.7146L25.7681 40.4829L23.913 41.9247L22.2319 43.2512L19.6812 44.8084L16.7826 46.1926Z"
    fill="#B1B2B3" />
  <path
    d="M33.1304 25.8915L33.942 26.6412L35.1594 27.91L35.8551 29.0635L36.1449 30.736V32.5816L35.7391 35.0039L34.6957 38.2913L32.8986 41.175L31.7971 42.3284L35.3913 40.4829L38.8696 38.1183L41.1884 36.2727L44.2029 32.9277L45.1304 31.7165L47.7971 27.5063L49.1304 24.2189L49.7681 21.4506L50 20.0664V19.259L46.5797 19.0283L42.8116 18.5669L39.2174 18.1632L35.1594 17.6442L33.6522 17.2981C33.401 17.2981 32.6783 17.2635 31.7971 17.1251C30.9159 16.9867 30.1546 16.9905 29.8841 17.0098H27.1594L23.913 17.2981C23.1014 17.4711 21.4319 17.8172 21.2464 17.8172C21.0609 17.8172 19.3913 18.5093 18.5797 18.8553C17.9807 19.1052 16.7478 19.6397 16.6087 19.7781C16.4696 19.9165 15.5459 20.4125 15.1014 20.6432L14 21.4506H18.1159L20.8986 21.6813L23.5652 21.9697L26.3478 22.6041L29.1884 23.5845L31.2174 24.565L33.1304 25.8915Z"
    fill="white" />
</svg>